<svg width="135" height="50" viewBox="0 0 135 50" fill="none" xmlns="http://www.w3.org/2000/svg">
<g clip-path="url(#clip0_1_789)">
<path d="M11.5 23C5.15883 23 0 17.8412 0 11.5C0 5.15883 5.15883 0 11.5 0C17.8412 0 23 5.15883 23 11.5C23 17.8412 17.8412 23 11.5 23ZM11.5 1.66061C6.07464 1.66061 1.66061 6.07464 1.66061 11.5C1.66061 16.9254 6.07464 21.3394 11.5 21.3394C16.9254 21.3394 21.3394 16.9254 21.3394 11.5C21.3394 6.07464 16.9254 1.66061 11.5 1.66061Z" fill="black"/>
<path d="M8.90798 7.66663L11.2018 15.1536H11.287L13.5808 7.66663H16.3555L12.8947 17.8888H9.59413L6.1333 7.66663H8.90798Z" fill="black"/>
</g>
<path d="M31.7962 0L35.7613 13.0612H35.9085L39.8736 0H44.6698L38.6875 17.8329H32.9823L27 0H31.7962Z" fill="black"/>
<path d="M51.191 18.0854C49.7942 18.0854 48.5937 17.798 47.5895 17.2233C46.591 16.6428 45.8205 15.836 45.278 14.8027C44.7412 13.7636 44.4728 12.559 44.4728 11.1891C44.4728 9.8133 44.7412 8.60877 45.278 7.57548C45.8205 6.53639 46.591 5.7295 47.5895 5.15481C48.5937 4.57431 49.7942 4.28407 51.191 4.28407C52.5877 4.28407 53.7853 4.57431 54.7838 5.15481C55.7881 5.7295 56.5586 6.53639 57.0953 7.57548C57.6379 8.60877 57.9091 9.8133 57.9091 11.1891C57.9091 12.559 57.6379 13.7636 57.0953 14.8027C56.5586 15.836 55.7881 16.6428 54.7838 17.2233C53.7853 17.798 52.5877 18.0854 51.191 18.0854ZM51.2169 14.8723C51.7248 14.8723 52.1548 14.7156 52.5069 14.4021C52.859 14.0887 53.1273 13.6533 53.312 13.096C53.5025 12.5387 53.5977 11.8944 53.5977 11.163C53.5977 10.4199 53.5025 9.76976 53.312 9.21248C53.1273 8.65521 52.859 8.21983 52.5069 7.90637C52.1548 7.5929 51.7248 7.43616 51.2169 7.43616C50.6917 7.43616 50.2473 7.5929 49.8837 7.90637C49.5259 8.21983 49.2517 8.65521 49.0612 9.21248C48.8766 9.76976 48.7842 10.4199 48.7842 11.163C48.7842 11.8944 48.8766 12.5387 49.0612 13.096C49.2517 13.6533 49.5259 14.0887 49.8837 14.4021C50.2473 14.7156 50.6917 14.8723 51.2169 14.8723Z" fill="black"/>
<path d="M66.2852 18.0854C64.8884 18.0854 63.6879 17.798 62.6837 17.2233C61.6852 16.6428 60.9147 15.836 60.3722 14.8027C59.8354 13.7636 59.567 12.559 59.567 11.1891C59.567 9.8133 59.8354 8.60877 60.3722 7.57548C60.9147 6.53639 61.6852 5.7295 62.6837 5.15481C63.6879 4.57431 64.8884 4.28407 66.2852 4.28407C67.6819 4.28407 68.8795 4.57431 69.878 5.15481C70.8823 5.7295 71.6528 6.53639 72.1895 7.57548C72.7321 8.60877 73.0033 9.8133 73.0033 11.1891C73.0033 12.559 72.7321 13.7636 72.1895 14.8027C71.6528 15.836 70.8823 16.6428 69.878 17.2233C68.8795 17.798 67.6819 18.0854 66.2852 18.0854ZM66.3111 14.8723C66.819 14.8723 67.249 14.7156 67.6011 14.4021C67.9532 14.0887 68.2215 13.6533 68.4062 13.096C68.5967 12.5387 68.6919 11.8944 68.6919 11.163C68.6919 10.4199 68.5967 9.76976 68.4062 9.21248C68.2215 8.65521 67.9532 8.21983 67.6011 7.90637C67.249 7.5929 66.819 7.43616 66.3111 7.43616C65.7859 7.43616 65.3415 7.5929 64.9779 7.90637C64.6201 8.21983 64.3459 8.65521 64.1554 9.21248C63.9708 9.76976 63.8784 10.4199 63.8784 11.163C63.8784 11.8944 63.9708 12.5387 64.1554 13.096C64.3459 13.6533 64.6201 14.0887 64.9779 14.4021C65.3415 14.7156 65.7859 14.8723 66.3111 14.8723Z" fill="black"/>
<path d="M81.7257 17.8329H75.172V0H81.717C83.5235 0 85.079 0.357006 86.3833 1.07102C87.6935 1.77922 88.7035 2.8009 89.4134 4.13604C90.1233 5.46538 90.4783 7.05594 90.4783 8.90772C90.4783 10.7653 90.1233 12.3617 89.4134 13.6968C88.7093 15.032 87.7022 16.0565 86.392 16.7706C85.0818 17.4788 83.5264 17.8329 81.7257 17.8329ZM79.4574 14.1583H81.5612C82.5539 14.1583 83.3937 13.99 84.0805 13.6533C84.7731 13.3108 85.2954 12.7564 85.6475 11.9902C86.0053 11.2181 86.1842 10.1906 86.1842 8.90772C86.1842 7.62483 86.0053 6.60315 85.6475 5.8427C85.2896 5.07644 84.7615 4.52497 84.0632 4.18828C83.3706 3.84579 82.5164 3.67454 81.5006 3.67454H79.4574V14.1583Z" fill="black"/>
<path d="M99.1877 18.0854C97.7909 18.0854 96.5904 17.798 95.5862 17.2233C94.5877 16.6428 93.8172 15.836 93.2746 14.8027C92.7379 13.7636 92.4695 12.559 92.4695 11.1891C92.4695 9.8133 92.7379 8.60877 93.2746 7.57548C93.8172 6.53639 94.5877 5.7295 95.5862 5.15481C96.5904 4.57431 97.7909 4.28407 99.1877 4.28407C100.584 4.28407 101.782 4.57431 102.78 5.15481C103.785 5.7295 104.555 6.53639 105.092 7.57548C105.635 8.60877 105.906 9.8133 105.906 11.1891C105.906 12.559 105.635 13.7636 105.092 14.8027C104.555 15.836 103.785 16.6428 102.78 17.2233C101.782 17.798 100.584 18.0854 99.1877 18.0854ZM99.2136 14.8723C99.7215 14.8723 100.152 14.7156 100.504 14.4021C100.856 14.0887 101.124 13.6533 101.309 13.096C101.499 12.5387 101.594 11.8944 101.594 11.163C101.594 10.4199 101.499 9.76976 101.309 9.21248C101.124 8.65521 100.856 8.21983 100.504 7.90637C100.152 7.5929 99.7215 7.43616 99.2136 7.43616C98.6884 7.43616 98.244 7.5929 97.8804 7.90637C97.5225 8.21983 97.2484 8.65521 97.0579 9.21248C96.8732 9.76976 96.7809 10.4199 96.7809 11.163C96.7809 11.8944 96.8732 12.5387 97.0579 13.096C97.2484 13.6533 97.5225 14.0887 97.8804 14.4021C98.244 14.7156 98.6884 14.8723 99.2136 14.8723Z" fill="black"/>
<path d="M114.282 18.0854C112.885 18.0854 111.685 17.798 110.68 17.2233C109.682 16.6428 108.911 15.836 108.369 14.8027C107.832 13.7636 107.564 12.559 107.564 11.1891C107.564 9.8133 107.832 8.60877 108.369 7.57548C108.911 6.53639 109.682 5.7295 110.68 5.15481C111.685 4.57431 112.885 4.28407 114.282 4.28407C115.679 4.28407 116.876 4.57431 117.875 5.15481C118.879 5.7295 119.649 6.53639 120.186 7.57548C120.729 8.60877 121 9.8133 121 11.1891C121 12.559 120.729 13.7636 120.186 14.8027C119.649 15.836 118.879 16.6428 117.875 17.2233C116.876 17.798 115.679 18.0854 114.282 18.0854ZM114.308 14.8723C114.816 14.8723 115.246 14.7156 115.598 14.4021C115.95 14.0887 116.218 13.6533 116.403 13.096C116.593 12.5387 116.689 11.8944 116.689 11.163C116.689 10.4199 116.593 9.76976 116.403 9.21248C116.218 8.65521 115.95 8.21983 115.598 7.90637C115.246 7.5929 114.816 7.43616 114.308 7.43616C113.783 7.43616 113.338 7.5929 112.975 7.90637C112.617 8.21983 112.343 8.65521 112.152 9.21248C111.967 9.76976 111.875 10.4199 111.875 11.163C111.875 11.8944 111.967 12.5387 112.152 13.096C112.343 13.6533 112.617 14.0887 112.975 14.4021C113.338 14.7156 113.783 14.8723 114.308 14.8723Z" fill="black"/>
<path d="M27.1905 33.415V29.9146H42.1764V33.415H36.8002V47.7475H32.5754V33.415H27.1905Z" fill="black"/>
<path d="M48.557 48C47.166 48 45.9655 47.7243 44.9555 47.1728C43.9512 46.6155 43.1778 45.8231 42.6353 44.7957C42.0985 43.7624 41.8301 42.5346 41.8301 41.1124C41.8301 39.7308 42.1014 38.5234 42.6439 37.4901C43.1865 36.451 43.9512 35.6441 44.9382 35.0694C45.9251 34.4889 47.0881 34.1987 48.4271 34.1987C49.3736 34.1987 50.2394 34.3467 51.0243 34.6428C51.8093 34.9388 52.4874 35.3771 53.0588 35.9576C53.6302 36.5381 54.0746 37.255 54.392 38.1083C54.7095 38.9559 54.8682 39.9282 54.8682 41.0253V42.0876H43.3106V39.6147H50.9291C50.9233 39.1619 50.8165 38.7585 50.6088 38.4044C50.401 38.0503 50.1153 37.7745 49.7517 37.5772C49.3938 37.374 48.9812 37.2724 48.5137 37.2724C48.0404 37.2724 47.6162 37.3798 47.241 37.5946C46.8659 37.8036 46.5686 38.0909 46.3493 38.4566C46.13 38.8165 46.0146 39.2258 46.003 39.6844V42.2008C46.003 42.7465 46.1098 43.2254 46.3233 43.6376C46.5369 44.0439 46.8399 44.3603 47.2324 44.5867C47.6248 44.8131 48.0923 44.9263 48.6349 44.9263C49.01 44.9263 49.3505 44.874 49.6564 44.7695C49.9623 44.665 50.2249 44.5112 50.4443 44.308C50.6636 44.1049 50.8281 43.8553 50.9377 43.5592L54.8249 43.6724C54.6633 44.5489 54.3084 45.3123 53.7601 45.9625C53.2175 46.6068 52.5047 47.1089 51.6217 47.4688C50.7386 47.8229 49.717 48 48.557 48Z" fill="black"/>
<path d="M68.64 38.4566L64.7528 38.5611C64.7124 38.2825 64.6027 38.0358 64.4238 37.821C64.2449 37.6004 64.0112 37.4292 63.7226 37.3073C63.4398 37.1795 63.1108 37.1157 62.7356 37.1157C62.245 37.1157 61.8266 37.2144 61.4803 37.4117C61.1398 37.6091 60.9724 37.8761 60.9782 38.2128C60.9724 38.474 61.0763 38.7004 61.2898 38.892C61.5092 39.0836 61.8987 39.2374 62.4586 39.3535L65.0212 39.8411C66.3487 40.0965 67.3356 40.5203 67.982 41.1124C68.6342 41.7045 68.9632 42.4882 68.969 43.4634C68.9632 44.3806 68.6919 45.1788 68.1552 45.858C67.6242 46.5371 66.897 47.0654 65.9735 47.4427C65.05 47.8142 63.9938 48 62.8049 48C60.906 48 59.4083 47.6082 58.3117 46.8245C57.2209 46.035 56.5975 44.9785 56.4417 43.655L60.6232 43.5505C60.7156 44.0381 60.9551 44.4096 61.3418 44.665C61.7285 44.9205 62.222 45.0482 62.8222 45.0482C63.3647 45.0482 63.8063 44.9466 64.1468 44.7434C64.4873 44.5402 64.6605 44.2703 64.6662 43.9336C64.6605 43.6318 64.5277 43.3909 64.268 43.2109C64.0083 43.0251 63.6014 42.88 63.0473 42.7755L60.7271 42.3314C59.3939 42.0876 58.4011 41.6378 57.749 40.9818C57.0968 40.32 56.7736 39.4783 56.7793 38.4566C56.7736 37.5627 57.0102 36.7993 57.4892 36.1666C57.9683 35.528 58.6493 35.0404 59.5324 34.7037C60.4154 34.367 61.4572 34.1987 62.6577 34.1987C64.4585 34.1987 65.8783 34.5789 66.9172 35.3394C67.956 36.094 68.5303 37.1331 68.64 38.4566Z" fill="black"/>
<path d="M78.5592 34.3728V37.5075H70.1702V34.3728H78.5592ZM71.9276 31.1685H76.1611V43.5418C76.1611 43.803 76.2015 44.0149 76.2823 44.1774C76.3689 44.3342 76.493 44.4474 76.6546 44.517C76.8162 44.5809 77.0095 44.6128 77.2346 44.6128C77.3962 44.6128 77.5665 44.5983 77.7454 44.5693C77.9301 44.5344 78.0686 44.5054 78.161 44.4822L78.8016 47.5559C78.5996 47.614 78.3139 47.6865 77.9445 47.7736C77.5809 47.8607 77.1452 47.9158 76.6373 47.939C75.6445 47.9855 74.7932 47.8694 74.0833 47.5908C73.3792 47.3063 72.8395 46.8651 72.4644 46.2672C72.095 45.6693 71.9161 44.9176 71.9276 44.012V31.1685Z" fill="black"/>
<defs>
<clipPath id="clip0_1_789">
<rect width="23" height="23" fill="white"/>
</clipPath>
</defs>
</svg>
